<svg width="124" height="52" viewBox="0 0 124 52" fill="none" xmlns="http://www.w3.org/2000/svg">
<path d="M4.34375 33.5L4.15625 35.6562C4.15625 36.4688 4.4375 36.8958 5 36.9375C6.77083 36.9375 8.04167 33.9792 8.8125 28.0625L11.9062 4.21875C11.9688 3.80208 12.125 3.38542 12.375 2.96875C13 1.96875 13.8125 1.46875 14.8125 1.46875C15.8125 1.46875 16.8438 1.86458 17.9062 2.65625C18.9688 3.44792 19.5 4.5 19.5 5.8125C19.5 7.10417 19.25 8.44792 18.75 9.84375C17.9375 12.0729 16.9062 13.1875 15.6562 13.1875C14.9688 13.1875 14.4688 12.9583 14.1562 12.5L11.8438 28.1875C11.4479 30.7083 10.875 32.9167 10.125 34.8125C8.75 38.1667 7.0625 39.8438 5.0625 39.8438C4.10417 39.8438 3.16667 39.4375 2.25 38.625C1.35417 37.7917 0.90625 36.4792 0.90625 34.6875C0.90625 32.875 1.59375 31.9583 2.96875 31.9375C3.84375 31.9583 4.30208 32.4792 4.34375 33.5ZM14.4062 9.25C15.7396 9.10417 16.4375 7.90625 16.5 5.65625C16.1042 5.69792 15.6354 5.94792 15.0938 6.40625C14.5729 6.84375 14.3125 7.57292 14.3125 8.59375C14.3125 8.82292 14.3438 9.04167 14.4062 9.25ZM30.9375 1.9375C31.1458 1.97917 31.25 2.125 31.25 2.375C31.2708 2.625 30.0938 6.9375 27.7188 15.3125L37.375 3.90625C37.5625 3.67708 37.8333 3.5625 38.1875 3.5625C38.5625 3.5625 38.8958 3.73958 39.1875 4.09375C39.5 4.44792 39.6458 4.79167 39.625 5.125C39.625 5.5 38.7917 6.64583 37.125 8.5625L31.9375 14.8438C33.0208 24.4271 33.8542 30.3438 34.4375 32.5938C35.0417 34.8229 35.6562 36.6875 36.2812 38.1875C36.9271 39.6875 37.9062 40.9479 39.2188 41.9688C39.7812 42.4062 40.3229 42.7083 40.8438 42.875C41.3646 43.0625 41.6354 43.25 41.6562 43.4375C41.6354 43.7083 41.2604 43.8438 40.5312 43.8438C38.3229 43.8438 36.2604 42.4479 34.3438 39.6562C33.3438 38.1771 32.4688 36.2396 31.7188 33.8438C30.9688 31.4479 30.375 28.6458 29.9375 25.4375C29.5208 22.2083 29.2292 19.9062 29.0625 18.5312L25.6562 22.9688C25.3229 24.2188 24.5938 26.8229 23.4688 30.7812C22.3438 34.7188 21.6771 37.0833 21.4688 37.875L21.0312 39.5312C20.8646 40.1771 20.6979 40.5 20.5312 40.5C19.9479 40.5 19.4792 40.1667 19.125 39.5C18.7708 38.8333 18.5833 38.3542 18.5625 38.0625C18.5625 36.4792 20.75 27.8958 25.125 12.3125L27.4688 4.09375C27.6354 3.59375 27.9583 3.19792 28.4375 2.90625C29.6042 2.26042 30.4375 1.9375 30.9375 1.9375ZM51.625 19.3438L51.5625 19.75L51.5 20.125C51.5 20.625 50.7708 22.625 49.3125 26.125C47.8333 29.625 47.1042 32.1042 47.125 33.5625C47.1667 36.0417 47.7708 37.2917 48.9375 37.3125C50.1042 37.3125 51.8125 36.0104 54.0625 33.4062C56.7708 30.2812 58.4271 27.9271 59.0312 26.3438C59.6354 24.7812 60.1042 24 60.4375 24C60.7083 24.0208 60.8542 24.3125 60.875 24.875C60.875 25.4167 60.8125 25.8333 60.6875 26.125L60.375 26.9688C59.4792 29.2604 58.0729 31.6458 56.1562 34.125C53.3854 37.7708 50.9167 39.5938 48.75 39.5938C48.0625 39.5938 47.4375 39.4167 46.875 39.0625C45.4583 38.1667 44.75 36.4792 44.75 34C44.75 33.1875 44.9271 31.9375 45.2812 30.25C45.6562 28.5625 45.8333 27.6562 45.8125 27.5312C45.8125 27.3854 45.625 27.2292 45.25 27.0625C44.5 26.7292 44 26.6875 43.75 26.9375C43.5417 27.2292 42.6146 29.4792 40.9688 33.6875C39.3438 37.8958 38.2292 40 37.625 40C37.4375 40 37.0833 39.875 36.5625 39.625C36.0208 39.375 35.75 39.0312 35.75 38.5938C35.75 38.5104 36.0208 37.875 36.5625 36.6875L38.2812 32.7188C39.4896 29.9271 40.9062 26.2083 42.5312 21.5625L46.6875 9.8125C46.7917 9.52083 47.125 9.36458 47.6875 9.34375L48.5 9.3125C49.5 9.3125 50 9.67708 50 10.4062C50 10.7604 49.4583 12.3229 48.375 15.0938C47.2917 17.8646 46.5938 20 46.2812 21.5L46.1875 22.4375C46.1875 22.7083 46.2396 22.8646 46.3438 22.9062C46.4062 22.8854 46.6667 22.4271 47.125 21.5312L47.9375 19.9375C48.0625 19.75 48.1875 19.5 48.3125 19.1875C48.7708 18.3333 49.3125 17.9062 49.9375 17.9062C51.0208 17.9271 51.5833 18.375 51.625 19.25V19.3438ZM70.25 17.1562C70.25 20.1771 69.4167 21.7292 67.75 21.8125C67.3333 21.8125 66.9375 21.7083 66.5625 21.5C66.7292 25.1667 66.8125 28.7396 66.8125 32.2188C66.8125 35.6979 66.1562 38.1667 64.8438 39.625C64.0938 40.4583 63.125 40.875 61.9375 40.875C60.7708 40.8958 59.8854 40.4896 59.2812 39.6562C58.6771 38.8438 58.375 38.0417 58.375 37.25C58.4167 36.2708 59.0417 35.7708 60.25 35.75C61.0208 35.75 61.3542 36.2812 61.25 37.3438C61.1458 38.4062 61.3958 38.9375 62 38.9375C63.125 38.9375 63.8125 37.5104 64.0625 34.6562C64.1875 33.3438 64.2396 31.5208 64.2188 29.1875C64.2188 26.8542 64.0312 25.6771 63.6562 25.6562C63.4896 25.6562 63.2604 25.9375 62.9688 26.5C62.6771 27.0417 61.9688 28.1667 60.8438 29.875C59.7396 31.5833 58.7812 32.8542 57.9688 33.6875C57.1562 34.5208 56.625 34.9792 56.375 35.0625C55.7917 35.2708 55.4583 35.0833 55.375 34.5C55.3958 33.875 55.7188 33.1458 56.3438 32.3125C58.5938 29.3333 60.7604 25.8958 62.8438 22C63.3229 21.1042 63.5625 20.5833 63.5625 20.4375V15.9375C63.5625 15.0833 63.9792 14.4271 64.8125 13.9688C65.1667 13.7812 65.5 13.6875 65.8125 13.6875C67.1042 13.7083 68.3021 14.0938 69.4062 14.8438C69.9271 15.2188 70.1979 15.6354 70.2188 16.0938C70.2396 16.5521 70.25 16.9062 70.25 17.1562ZM66.3125 19.25C67.0208 19.125 67.4271 18.8854 67.5312 18.5312C67.6562 18.1562 67.7188 17.7917 67.7188 17.4375C67.7188 17.0625 67.6979 16.7812 67.6562 16.5938C67.0312 16.5938 66.6042 17.0312 66.375 17.9062C66.2917 18.1979 66.25 18.4688 66.25 18.7188C66.25 18.9688 66.2708 19.1458 66.3125 19.25ZM80.7188 10.1875C80.6146 10.1458 80.3542 9.97917 79.9375 9.6875C79.4375 9.33333 79.1875 9.07292 79.1875 8.90625C79.1875 8.34375 79.9688 7.02083 81.5312 4.9375C83.0938 2.85417 83.9792 1.60417 84.1875 1.1875C84.7083 0.666667 85.4271 0.927083 86.3438 1.96875C87.0729 2.84375 87.3021 3.55208 87.0312 4.09375C86.8854 4.63542 86 5.78125 84.375 7.53125C82.75 9.28125 81.5312 10.1667 80.7188 10.1875ZM88.1875 29.8125C87.4167 31.9792 85.8854 34.1875 83.5938 36.4375C80.8854 39.1042 78.6146 40.4375 76.7812 40.4375C74.3021 40.4375 72.75 39.0312 72.125 36.2188C71.9375 35.3646 71.8438 34.4375 71.8438 33.4375C71.8229 30.2083 72.4375 26.4688 73.6875 22.2188C75.25 16.8438 76.7292 14.1562 78.125 14.1562C78.8125 14.1562 79.3125 14.3229 79.625 14.6562C79.9583 14.9688 80.125 15.1979 80.125 15.3438C80.125 16.0104 79.4479 17.6562 78.0938 20.2812C76.7396 22.8854 75.8958 24.7812 75.5625 25.9688C75.25 27.1354 75.0104 28.6667 74.8438 30.5625C74.6979 32.4375 74.625 33.6458 74.625 34.1875C74.625 36.0208 74.8438 37.1667 75.2812 37.625C75.7396 38.0833 76.2917 38.3229 76.9375 38.3438C78.7708 38.3438 80.9583 36.75 83.5 33.5625C84.7292 32 85.6875 30.5625 86.375 29.25C86.6875 28.75 87.0104 28.5 87.3438 28.5C87.9062 28.5833 88.2188 28.8646 88.2812 29.3438C88.2812 29.4062 88.25 29.5625 88.1875 29.8125ZM96.5938 14.8438L107.812 14.5938C108.042 14.5938 108.292 14.8021 108.562 15.2188C108.833 15.6146 108.979 16.1562 109 16.8438C108.979 17.3021 108.385 17.5417 107.219 17.5625C103.76 17.6458 99.5729 18.0625 94.6562 18.8125C94.3021 19.8333 93.7292 21.3021 92.9375 23.2188C89.4583 31.6354 87.7188 37.5417 87.7188 40.9375C87.7188 42.625 88.0417 44.25 88.6875 45.8125C89.8125 48.4375 91.4896 49.75 93.7188 49.75C95.4479 49.75 96.8958 49.3021 98.0625 48.4062C99.25 47.5312 100.646 46.0833 102.25 44.0625C102.75 43.4167 103.271 43.1875 103.812 43.375C104.333 43.6042 104.594 44.0521 104.594 44.7188C104.594 46.6354 103.49 48.2292 101.281 49.5C99.0729 50.7917 96.6979 51.4375 94.1562 51.4375C91.6354 51.4375 89.4479 50.5104 87.5938 48.6562C85.7604 46.8021 84.8438 44.3333 84.8438 41.25C84.8438 39.1875 85.1042 36.9792 85.625 34.625C86.1458 32.2708 87.0938 29.3438 88.4688 25.8438C89.8438 22.3229 90.7396 19.9792 91.1562 18.8125C86.8438 18.8125 84.4375 18.7604 83.9375 18.6562C82.3958 18.3229 81.6146 17.6667 81.5938 16.6875C81.6146 16.375 81.8542 16.1771 82.3125 16.0938L92.4688 15.25L99.1562 4C99.9271 2.70833 100.625 2.0625 101.25 2.0625C101.5 2.0625 101.792 2.10417 102.125 2.1875C103.354 2.45833 103.969 2.90625 103.969 3.53125C103.969 4.13542 103.344 5.07292 102.094 6.34375C100.844 7.61458 100.073 8.42708 99.7812 8.78125C98.8021 9.98958 97.7396 12.0104 96.5938 14.8438ZM113.094 14.4062C115.76 14.4062 117.094 15.2708 117.094 17C117.01 17.8958 116.292 19.7917 114.938 22.6875C113.583 25.5625 112.583 27 111.938 27C111.625 26.9375 111.427 26.7708 111.344 26.5C111.344 26.3333 111.448 26.1354 111.656 25.9062C111.865 25.6771 112.115 25.2604 112.406 24.6562C113.323 22.8229 113.781 21.2812 113.781 20.0312C113.781 18.7812 113.604 17.9062 113.25 17.4062C112.688 17.4271 112.031 18 111.281 19.125C109.927 21.2292 108.75 23.9792 107.75 27.375C106.771 30.7708 106.281 33.4583 106.281 35.4375C106.281 35.8333 106.292 36.1458 106.312 36.375C106.396 37.7917 106.99 38.5 108.094 38.5C111.427 38.5 115.938 35.6042 121.625 29.8125C122.771 28.6667 123.406 28.4167 123.531 29.0625C123.531 29.4167 123.323 29.9375 122.906 30.625C121.823 32.4167 120.146 34.3021 117.875 36.2812C114.521 39.2188 111.646 40.6875 109.25 40.6875C107.667 40.6667 106.396 40.0729 105.438 38.9062C104.479 37.7604 103.875 36.6042 103.625 35.4375C103.021 32.625 103.385 29.7812 104.719 26.9062C104.76 26.8229 104.969 26.375 105.344 25.5625C107.552 20.6667 109.583 17.1771 111.438 15.0938C111.854 14.6562 112.406 14.4271 113.094 14.4062Z" fill="#0D4191"/>
</svg>
